# xmcd
#
# Track frame offsets:
#	150
#	9924
#	22860
#	34244
#	43751
#	53597
#	97522
#	108278
#	118491
#	129230
#	141136
#	150657
#	161375
#
# Disc length: 2502 seconds
#
# Revision: 1
# Processed by: cddbd v1.5PL3 Copyright (c) Steve Scherf et al.
# Submitted via: EasyCDDAExtractor 6.5.0.1
#
DISCID=9209c40d
DTITLE=Jimmy Page and Albert Lee - Abracadabra
DYEAR=1997
DGENRE=Blues
TTITLE0=Lovin' Up A Storm
TTITLE1=Everything I Do Is Wrong
TTITLE2=Think It Over
TTITLE3=Boll Weevil Song
TTITLE4=Livin' Loving Wreck
TTITLE5=One Long Kiss
TTITLE6=Dixie Fried
TTITLE7=Down The Line
TTITLE8=Fabulous
TTITLE9=Breathless
TTITLE10=Rave On
TTITLE11=Lonely Weekends
TTITLE12=Burn Up
EXTD=
EXTT0=
EXTT1=
EXTT2=
EXTT3=
EXTT4=
EXTT5=
EXTT6=
EXTT7=
EXTT8=
EXTT9=
EXTT10=
EXTT11=
EXTT12=
PLAYORDER=
